<?xml version="1.0" encoding="UTF-8" standalone="no"?>
<svg
   xmlns:dc="http://purl.org/dc/elements/1.1/"
   xmlns:cc="http://creativecommons.org/ns#"
   xmlns:rdf="http://www.w3.org/1999/02/22-rdf-syntax-ns#"
   xmlns:svg="http://www.w3.org/2000/svg"
   xmlns="http://www.w3.org/2000/svg"
   viewBox="0 0 500 500"
   height="500"
   width="500"
   xml:space="preserve"
   id="svg2"
   version="1.1"><metadata
     id="metadata8"><rdf:RDF><cc:Work
         rdf:about=""><dc:format>image/svg+xml</dc:format><dc:type
           rdf:resource="http://purl.org/dc/dcmitype/StillImage" /></cc:Work></rdf:RDF></metadata><defs
     id="defs6"><clipPath
       id="clipPath14"
       clipPathUnits="userSpaceOnUse"><path
         id="path12"
         d="M 0,8.039989 H 375 V 383.03998 H 0 Z" /></clipPath><clipPath
       id="clipPath24"
       clipPathUnits="userSpaceOnUse"><path
         style="clip-rule:evenodd"
         id="path22"
         d="M 0,0 H 1562.5 V 1562.5 H 0 Z" /></clipPath><clipPath
       id="clipPath36"
       clipPathUnits="userSpaceOnUse"><path
         style="clip-rule:evenodd"
         id="path34"
         d="M 0,0 H 1562.5 V 1562.5 H 0 Z" /></clipPath><clipPath
       id="clipPath48"
       clipPathUnits="userSpaceOnUse"><path
         style="clip-rule:evenodd"
         id="path46"
         d="M 409.84601,46.271797 H 1166.096 V 1336.8968 H 409.84601 Z" /></clipPath><clipPath
       id="clipPath60"
       clipPathUnits="userSpaceOnUse"><path
         style="clip-rule:evenodd"
         id="path58"
         d="M 457.42874,720.29297 H 1116.8037 V 1467.168 H 457.42874 Z" /></clipPath></defs><g
     clip-path="url(#clipPath14)"
     transform="matrix(1.3333333,0,0,-1.3333333,0,510.71997)"
     id="g10"><g
       transform="matrix(0.23999999,0,0,-0.23999999,0,383.03998)"
       id="g16"><g
         id="g18"><g
           clip-path="url(#clipPath24)"
           id="g20"><g
             transform="scale(3.125)"
             id="g26"><path
               id="path28"
               style="fill:#ffffff;fill-opacity:1;fill-rule:nonzero;stroke:none"
               d="M 0,0 H 500 V 500 H 0 Z" /></g></g></g><g
         id="g30"><g
           clip-path="url(#clipPath36)"
           id="g32"><g
             transform="scale(3.125)"
             id="g38"><path
               id="path40"
               style="fill:#ffffff;fill-opacity:1;fill-rule:nonzero;stroke:none"
               d="M 0,0 H 500 V 500 H 0 Z" /></g></g></g><g
         id="g42"><g
           clip-path="url(#clipPath48)"
           id="g44"><g
             transform="matrix(1.4287739,0,0,1.4252515,410.41751,48.510822)"
             id="g50"><path
               id="path52"
               style="fill:#f94616;fill-opacity:1;fill-rule:nonzero;stroke:none"
               d="m 196.987,617.80298 c 11.015,28.95801 1.106,54.73102 -11.472,80.11597 -11.347,22.901 -23.112,45.58398 -31.97901,69.656 -8.669,23.53497 -13.19799,47.71301 -8.569,72.39697 4.239,22.60602 15.504,41.62201 36.29801,53.58698 0.558,0.32098 1.166,0.55499 2.02,0.95502 -2.30299,1.307 -3.48599,0.315 -4.645,-0.13599 -17.231,-6.70801 -34.097,-14.14203 -49.09801,-25.20099 -2.277,-1.67902 -4.453,-3.539 -6.886,-4.953 -20.408,-11.862 -37.615997,-27.49701 -52.518005,-45.58399 -17.652,-21.427 -32.664001,-44.51703 -39.310001,-71.96301 -8.697001,-35.91498 -9.454001,-72.05798 -2.545,-108.41101 6.777998,-35.66498 23.070997,-67.20599 42.655996,-97.08099 15.045998,-22.95099 31.206,-45.176 43.134,-70.00702 12.56501,-26.15702 16.64701,-53.39499 10.25801,-82.056 -1.74701,-7.836 -3.749,-15.37299 -7.612,-22.44901 -2.334,-4.276 -1.275,-5.79001 3.46199,-5.82901 6.26001,-0.051 11.457,2.78299 16.415,6.22501 25.21499,17.50601 36.53399,43.112 42.296,72.07599 3.64501,18.32098 3.63401,36.66 1.68201,55.14999 -0.94099,8.91001 -1.82401,17.88797 -0.924,26.897 0.454,4.54499 1.808,8.81403 4.064,12.74402 3.687,6.42401 9.802,7.883 15.524,3.28699 6.343,-5.09497 9.481,-12.021 10.843,-20.11298 5.94001,-35.28601 -2.335,-69.21099 -9.936,-103.10199 -5.894,-26.281 -9.306,-52.78799 -9.357,-79.64099 -0.069,-36.40899 13.446,-68.49298 33.267,-98.25599 5.806,-8.71801 12.068,-17.15601 18.502,-25.42701 11.875,-15.266 22.484,-31.35899 32.48799,-47.886 13.922,-22.998 19.689,-47.53799 16.29401,-74.497998 -2.091,-16.606003 -5.982,-32.446999 -14.49301,-46.787998 -9.034,-15.223999 -21.95301,-26.074 -39.135,-31.479 -3.444,-1.0830005 -8.87899,-1.6350005 -7.877,-6.5860002 0.98101,-4.8450003 6.45101,-3.28099994 9.73801,-2.9170001 20.96201,2.323 39.10501,11.1649993 54.87601,25.0170003 8.16199,7.168998 15.276,15.264 21.656,24.076999 13.792,19.05 25.50299,39.157002 31.763,62.011007 5.44001,19.864 6.58301,40.087 5.23301,60.638 -2.573,39.16901 -13.917,76.343 -24.47001,113.771 -3.59201,12.73901 -7.46899,25.591 -8.005,38.988 -0.41,10.22699 0.625,20.31699 5.63901,29.54099 5.58801,10.28 14.79699,14.57699 26.009,14.57501 10.254,-0.002 15.74799,-7.04599 19.66602,-15.32102 7.052,-14.89599 13.65499,-29.90798 12.68701,-47.08401 -0.57401,-10.19299 -2.32999,-20.08099 -5.20499,-29.82501 -0.35101,-1.189 -1.672,-2.50501 -0.32699,-3.61701 1.11199,-0.919 2.51599,-0.20599 3.75799,0.30899 9.21899,3.82502 15.23801,11.04902 20.23801,19.262 19.31799,31.729 24.496,66.81601 23.78,103.10501 -1.05201,53.27499 -13.96399,104.26901 -30.54102,154.522 -7.28601,22.08698 -15.018,44.05499 -20.01199,66.823 -2.29599,10.46698 -3.40601,20.953 0.15301,31.51501 2.327,6.90601 7.19602,11.00501 13.39499,13.93 3.19901,1.50897 6.50299,1.12597 9.638,-0.40302 5.41699,-2.64203 9.39499,-6.76098 12.27701,-12.02301 8.65799,-15.80902 13.043,-33.14599 16.51401,-50.52502 4.91501,-24.60401 8.125,-49.52399 7.587,-74.75299 -0.26599,-12.482 -0.487,-24.96399 -0.647,-37.448 -0.026,-2.034 -0.974,-4.651 1.694,-5.728 2.76999,-1.11801 4.76801,0.66199 6.483,2.58402 6.85999,7.68899 11.663,16.66 14.931,26.29199 7.702,22.698 11.44,46.25201 11.91699,70.099 0.50501,25.22802 -3.867,49.97802 -11.17001,74.14203 -3.78299,12.51898 -5.79001,25.26098 -5.57901,38.32599 0.088,5.44 1.34,10.52398 5.371,14.60699 6.306,6.388 14.67899,6.33301 20.53101,-0.43597 6.544,-7.56904 8.61401,-17.11603 10.93701,-26.42603 4.39499,-17.612 1.76099,-34.61499 -5.22198,-51.125 -0.51502,-1.21698 -0.956,-2.47998 -1.275,-3.76001 -0.345,-1.38501 0.064,-2.66302 1.147,-3.61102 1.30201,-1.13898 2.45902,-0.28198 3.62,0.38202 4.31201,2.46698 7.457,6.276 10.10998,10.208 5.76001,8.53699 12.228,16.65601 16.76502,25.96802 11.16101,22.90802 13.435,47.00897 9.51898,71.94898 -7.50403,47.802 -31.41699,85.34698 -69.83002,114.492 -30.07299,22.81702 -62.98901,40.04999 -98.08099,53.44702 -3.83099,1.46302 -7.91699,2.28998 -11.927,3.23297 -1.237,0.29102 -3.091,1.57001 -3.73401,-0.742 -0.51501,-1.85303 1.50201,-1.685 2.423,-2.19299 18.38001,-10.14698 35.90799,-21.64002 51.81299,-35.30402 21.84299,-18.76398 37.88401,-41.44702 43.323,-70.39203 2.453,-13.05402 0.60001,-26.00799 -3.75101,-38.31299 -5.19,-14.677 -11.00799,-29.20099 -20.52398,-41.82702 -0.20002,-0.26502 -0.32599,-0.60498 -0.569,-0.81299 -2.02301,-1.73297 -3.56101,-5.63202 -6.474,-4.07703 -1.83802,0.98102 0.24499,4.39002 0.81399,6.67499 1.78699,7.18799 4.095,14.29303 5.249,21.58099 2.02301,12.77503 -4.637,22.05799 -14.67499,28.26099 -7.78601,4.81097 -16.45801,3.25 -24.36499,-1.68903 -10.789,-6.73797 -19.116,-15.87701 -26.375,-26.143 -20.237,-28.61798 -35.556,-59.73401 -44.504,-93.55402 -10.84299,-40.98297 -10.90701,-82.34601 -0.90701,-123.68402 2.85299,-11.79501 6.28601,-23.38101 10.16198,-34.858 0.37101,-1.10001 0.754,-2.198 1.09101,-3.30899 0.60199,-1.98901 0.094,-3.74301 -1.664,-4.784 -1.59601,-0.945 -3.29902,-0.48199 -4.577,0.806 -1.871,1.88599 -3.82999,3.74399 -5.38,5.88199 -19.66602,27.13001 -34.69901,56.435 -41.184,89.59802 -2.60699,13.32801 -2.06298,26.80103 -0.32998,40.20002 1.19,9.20098 2.366,18.432 4.224,27.51202 1.95001,9.53198 4.64001,18.91601 7.126,28.33301 3.21799,12.19201 2.973,24.29199 -0.69601,36.33099 -2.48901,8.16602 -6.414,15.13702 -15.802,16.599 -9.944,1.54797 -17.26601,-3.39001 -22.34799,-11.09699 -7.32801,-11.11199 -10.32601,-23.51599 -7.998,-36.90496 3.73995,-21.52979 -8.66906,-46.27582 -28.55605,-56.54883 z m 24.605,-340.60599 c -0.672,0.25 -1.114,0.27499 -1.237,0.48599 -0.491,0.844 -1.05201,1.70301 -1.28501,2.63199 -5.05499,20.15201 -9.272,40.469 -10.268,61.27799 -0.90801,18.97799 2.744,37.432 7.382,55.711 3.63001,14.30499 9.05701,28.208 9.569,43.203 0.035,1.03399 0.168,2.08899 1.49001,2.14999 1.93699,0.089 1.46099,-1.48001 1.453,-2.49301 -0.051,-6.79599 -0.37601,-13.574 -0.767,-20.366 -0.888,-15.38699 -3.38,-30.50399 -6.80701,-45.42099 -6.28199,-27.34601 -6.682,-54.634 -1.70599,-82.18701 0.875,-4.84595 2.77699,-9.71393 2.176,-14.99295 z M 61.084999,603.87201 c -2.706001,0.56097 -2.984001,2.56201 -3.756,4.112 -10.953,22.01001 -15.915001,45.185 -14.554001,69.85199 0.708999,12.85602 3.935001,24.685 10.521999,35.65698 0.707001,1.177 1.075001,3.469 2.876,2.69598 1.417999,-0.60797 0.634998,-2.526 0.229999,-3.95697 -3.077999,-10.87402 -4.282001,-21.98199 -4.577,-33.27099 -0.203998,-7.84003 0.504002,-15.61902 1.230999,-23.35101 0.987999,-10.49799 1.344002,-21.09803 3.616002,-31.45801 1.465003,-6.67499 2.907005,-13.35596 4.412002,-20.27997 z m 123.168011,58.44897 c -2.771,4.73902 -4.622,9.72199 -7.711,14.18903 -9.277,13.414 -18.329,26.95398 -25.19901,41.87701 -8.239,17.89698 -15.207,36.07099 -16.29201,56 -0.075,1.37403 -0.891,3.56299 1.05201,3.81098 2.14199,0.27398 1.606,-1.97901 1.70399,-3.344 0.51,-7.11297 2.28,-13.945 4.745,-20.591 8.766,-23.63202 21.332,-45.33697 34.042,-66.97198 4.52102,-7.69605 7.19802,-16.01703 7.65902,-24.97004 z M 315.216,520.93298 c -2.94799,4.57099 -3.25601,8.57502 -3.81698,12.59803 -2.46201,17.63897 -6.07401,35.06701 -3.92801,53.17901 2.21399,18.69 4.50201,37.18299 13.74301,53.99701 0.54599,0.99298 0.336,3.27197 2.28101,2.52002 1.94198,-0.75098 0.272,-2.43701 -0.063,-3.367 -4.66101,-12.92798 -7.60999,-26.172 -8.943,-39.88599 -2.044,-21.034 -2.617,-41.987 -0.062,-63.03699 0.58698,-4.83209 1.90998,-9.78405 0.78897,-16.00409 z m 22.48999,-379.99399 c 0,3.26401 -0.40399,6.064 0.07,8.70501 1.97,10.973 1.107,21.817 -1.72501,32.43199 -4.777,17.905 -10.07199,35.671 -14.92099,53.55701 -0.41699,1.539 -2.764,4.145 -0.42099,4.942 2.181,0.742 2.29099,-2.64101 3.077,-4.26601 2.58301,-5.345 4.80801,-10.864 7.426,-16.19099 11.428,-23.247 12.84899,-47.894 10.28201,-73.08201 -0.21503,-2.11199 -0.89102,-4.46199 -3.78803,-6.097 z M 506.198,747.07501 c -1.793,3.45001 -3.49301,6.146 -4.65302,9.05701 -4.93799,12.38599 -10.16101,24.58002 -17.70898,35.70398 -4.259,6.27698 -7.81699,13.02502 -13.13699,18.55701 -0.594,0.61798 -1.72901,1.466 -0.77701,2.50701 0.85901,0.93903 1.85101,0.21601 2.65701,-0.346 0.67599,-0.47101 1.29001,-1.04303 1.88199,-1.62 14.095,-13.737 24.16699,-30.04602 30.48001,-48.617 1.54599,-4.54505 3.677,-9.33503 1.25699,-15.24201 z M 314.26599,465.51099 c 4.828,-3.137 6.08701,-7.22199 8.42899,-10.443 7.845,-10.789 15.397,-21.772 20.113,-34.40399 0.66501,-1.78 1.85501,-3.48199 0.14099,-6.009 -10.81597,16.07001 -22.07498,31.328 -28.68298,50.85599 z M 227.744,478.263 c 0,2.48999 0.031,4.98001 -0.013,7.46899 -0.023,1.297 0.444,2.56101 1.624,2.73499 1.73899,0.25601 2.162,-1.48199 2.22399,-2.673 0.18,-3.474 0.478,-7.03202 -0.09,-10.42002 -0.345,-2.05899 0.014,-6.14001 -2.13699,-5.905 -3.05701,0.33402 -1.10801,4.08899 -1.592,6.31 -0.17401,0.79205 -0.029,1.65405 -0.016,2.48404 z M 4.9720001,789.53998 C 9.9809999,809.09399 21.35,823.578 38.887001,833.401 c 6.078999,3.40503 11.623001,7.62903 17.354,11.578 14.710003,10.13398 28.869,21.09497 44.418999,29.97998 1.16201,0.66401 2.638,2.349 3.837,0.43 1.02,-1.63202 -0.94999,-2.14698 -1.911,-2.88098 C 88.991997,862.12097 75.893997,851.11597 63.777,839.06201 48.088001,823.45404 33.498001,806.85803 23.042999,787.12604 c -10.962,-20.68903 -15.3079993,-43.13397 -17.121,-66.22699 -0.4660001,-5.93598 -1.329,-11.84101 -1.9830001,-17.763 -0.1400001,-1.27198 -0.5899999,-2.40699 -1.966,-2.414 -1.38500003,-0.007 -1.90900008,1.14099 -1.95500008,2.40503 -0.03600001,0.99401 -0.02400001,2.00201 0.101,2.98602 1.17099998,9.224 1.90300008,18.47302 1.84999998,27.781 -0.054,9.45002 -0.012,18.901 -0.012,28.35199 -2.32399881,9.4889 0.7130013,18.30793 3.0150013,27.29389 z M 98.815002,389.62399 c -0.015,-1.54699 -0.375,-3.37701 -2.168998,-3.34201 -1.983002,0.038 -1.781998,1.991 -1.776001,3.465 0.074,17.909 -5.281998,34.80099 -9.805001,51.83099 -3.730003,14.04401 -12.128997,25.961 -18.231002,38.92801 -5.053002,10.73499 -9.056,22.116 -17.015,31.20099 -8.093002,9.23901 -14.669998,19.73901 -23.651001,28.23102 C 25.045,541 23.273998,542.09198 24.465,544.08398 c 1.334999,2.23298 3.265,1.00098 4.868,0.44501 6.223,-2.156 11.605999,-5.73199 15.719002,-10.836 5.122002,-6.35601 10.736999,-12.22497 16.363998,-18.11297 4.468003,-4.676 8.537003,-9.72101 11.862999,-15.30802 18.006005,-30.255 24.115998,-63.61099 25.551003,-98.177 -10e-4,-4.156 0.026,-8.31399 -0.015,-12.47101 z M 205.985,892.44702 c -10.252,-5.794 -15.41299,-15.71399 -20.80901,-25.47601 -7.886,-14.26398 -12.684,-29.47803 -13.208,-45.776 -0.74601,-23.20398 3.72999,-45.77997 9.23399,-68.17298 0.496,-2.01898 1.399,-4.32397 -0.923,-5.19098 -2.19701,-0.82 -2.803,1.75898 -3.638,3.28199 -4.478,8.16498 -6.642,17.20501 -9.62301,25.92498 -6.35,18.57203 -11.035,37.30103 -7.30099,57.28803 4.15199,22.22302 13.94,40.83801 32.394,54.42401 4.267,3.14099 8.826,5.44403 14.67199,5.33002 -0.39196,-0.83209 -0.47297,-1.4491 -0.79797,-1.63306 z M 380.09399,125.426 c -2.505,-13.799 -8.552,-25.844999 -17.25399,-36.702001 -0.99302,-1.238998 -1.332,-3.421997 -3.58301,-2.269997 -2.18399,1.118004 -1.017,2.866997 -0.314,4.267998 3.11301,6.206001 5.952,12.564 7.63199,19.276 4.08301,16.318 5.39801,32.957 5.10501,49.76 -0.20001,11.44299 0.34201,22.925 -2.121,34.214 -0.87701,4.021 -1.99701,7.99001 -3.03201,11.976 -0.32801,1.261 -1.17801,2.785 0.43701,3.513 1.88599,0.851 2.43399,-1.024 3.19199,-2.211 0.26501,-0.414 0.41799,-0.901 0.609,-1.36099 7.094,-17.071 12.14801,-34.599 11.982,-53.291 0.16403,-9.16802 -1.01999,-18.17501 -2.65299,-27.17201 z m -14.552,642.41799 c -2.79001,-2.341 -5.569,-4.70398 -8.483,-6.88501 -14.07901,-10.54101 -23.634,-24.58502 -30.97,-40.26202 -3.34,-7.14001 -6.021,-14.591 -10.69602,-21.04401 -0.755,-1.04199 -1.401,-2.70001 -3.001,-1.93597 -1.50202,0.71802 -1.05899,2.41803 -0.452,3.50702 3.93399,7.05798 4.33499,15.14697 6.76502,22.63299 4.36401,13.448 10.152,26.07099 22.61801,34.04798 7.504,4.80102 16.13501,7.73498 23.01401,13.62799 0.64599,0.55298 1.41699,0.987 2.19601,0.25702 0.44101,-0.41303 0.73401,-0.98297 1.12601,-1.52698 -0.81205,-0.94098 -1.37003,-1.79303 -2.11704,-2.41901 z M 488.474,591.48798 c 0.029,4.29303 -0.33499,8.617 1.00101,12.81097 0.58801,1.84497 1.737,3.48102 3.64499,3.46198 1.776,-0.018 1.876,-2.13898 2.20901,-3.46998 1.16699,-4.65997 1.96701,-9.39001 1.34799,-14.22998 -1.599,-12.49798 -1.88299,-25.02899 -0.948,-37.59002 0.10901,-1.46802 0.607,-3.32501 -1.397,-3.64203 -2.26599,-0.35901 -2.336,1.81598 -2.83899,3.31402 -3.32501,9.89502 -3.31399,20.13599 -3.02301,30.39301 0,2.98303 -0.016,5.96808 0.004,8.95203 z M 197.31599,699.888 c -2.434,-0.35602 -2.15499,2.69702 -2.77499,4.45801 -1.69299,4.81097 -3.412,9.61401 -5.2,14.39001 -1.72999,4.62 -3.58,9.19599 -5.33099,13.80902 -0.424,1.11701 -0.56,2.36902 0.49699,3.21302 1.12601,0.90002 1.82001,-0.13898 2.39,-0.88898 6.702,-8.83899 11.422,-18.47601 11.87101,-30.284 -0.60601,-1.28405 1.15599,-4.31506 -1.45202,-4.69708 z" /></g></g></g><g
         id="g54"><g
           clip-path="url(#clipPath60)"
           id="g56"><g
             transform="matrix(1.4839652,0,0,1.4821889,465.6152,723.70203)"
             id="g62"><path
               id="path64"
               style="fill:#000000;fill-opacity:1;fill-rule:nonzero;stroke:none"
               d="m 366.47,129.38 c 9.75,-6.51 18.94,-11.94999 24.4,-22.30999 6.17001,-11.720004 18.47,-16.650004 29.5,-13.120005 11.1,3.550003 18.20001,14.480005 17.14001,26.389995 -1.13001,12.81001 -10.22,22.94 -23.10999,23.83 -9.52999,0.64999 -16.01998,6.14999 -24.20999,11.1 33.66001,63.44001 25.63001,124.89 -9.26999,185.6 9.39002,8.11999 17.98001,16.14001 31.48999,15.55999 8.20002,-0.35998 15.20002,2.70999 18.76001,10.75 3.62,8.18 0.16001,15.14002 -5.01999,21.17002 -9.04998,10.54 -21.07998,12.95999 -33.91,9.85998 -4.04999,-0.98001 -9.26999,-4.91 -10.44,-8.6 -3.56,-11.23002 -13.29999,-14.73002 -21.89002,-20.98002 -2.67999,2.37 -5.19,4.39002 -7.47,6.64002 -31.20999,30.82001 -67.94,50.26999 -112.03,54.70999 -7.08999,0.70999 -8.39,2.53 -8.33999,10.03 0.03,5.10001 -0.36,10.23001 0.1,15.29001 0.28,3.07998 1.29,6.39001 2.92,9.01001 5.9,9.47 5.97,15.98999 -0.39999,25.1 -5.84,8.35001 -14.9,12.17002 -23.72,10.01001 -9.30001,-2.28 -16.60001,-10.35998 -17.9,-20.07 -0.74,-5.57999 -0.47999,-11.16001 3.75,-15.44001 8.22,-8.32998 5.16001,-18.47 4.25,-28.01001 -0.19999,-2.05999 -4.41,-4.48001 -7.22,-5.38 -5.89,-1.89002 -12.14999,-2.60999 -18.11999,-4.29001 -41.61,-11.72 -76.930004,-33.29999 -104.52,-66.95001 -2.290001,-2.79001 -4.769997,-5.42002 -7.479999,-8.47 -8.399998,3.53 -16.05,5.76999 -17.490002,17.07998 -1.470001,11.57999 -16.58,18.16001 -27.770001,13.67002 -16.6200004,-6.67002 -23.77,-29.32001 -14.1599994,-44.44001 4.0200005,-6.32 9.5200004,-8.51998 16.8199994,-7.57 12.5,1.63 14.64,0.91 25.680001,-7.82999 -11.790001,-27 -18.25,-55.39999 -16.860001,-85.63 1.4,-30.42 11.540001,-57.77001 26.27,-83.98999 -6.939998,-7.03 -12.470001,-13.19001 -23.319999,-13.04 -12.549999,0.17 -21.600001,-10.47 -22.280001,-22.83 -0.7700004,-13.95 8.34,-25.589996 22.230002,-28.43 11.619998,-2.370003 23.36,4.379997 27.02,16.93 2.439999,8.37 6.950001,14.16 15.030003,18.73 2.410003,-2 5.029998,-3.86 7.29,-6.08001 26.849997,-26.319995 59.619997,-40.359996 96.219997,-46.429996 6.12,-1.010002 12.31,-1.690002 18.49001,-2.239998 4.32001,-0.379997 6.93001,-2.139999 6.88001,-6.709999 -0.09,-8.299999 0.74,-16.36 -4.29,-24.27 -7.58999,-11.940001 -4.61,-25.879999 5.59,-33.32 9.22999,-6.7300001 23.92,-5.5700002 32.42,2.5500001 9.93,9.4900009 11.38,23.6700009 2.61999,34.6899979 -4.41,5.540001 -6.28,11.399998 -6.50999,18.119999 -0.27001,7.830002 1.08,9.139999 8.97,10.870003 13.89999,3.050003 28.01999,5.5 41.54001,9.809997 28.91,9.230003 54.88,23.959996 77.14999,44.840006 1.31,1.23 2.82001,2.24 5.20001,4.11999 l -9e-5,-0.03 z m -311.359999,207.68 -0.05,-0.05 C 53.330002,334.38 51.59,331.75 50,329.34 c -2.07,0.45001 -3.189999,0.51001 -4.150002,0.92999 -8.659999,3.81 -16.979999,7.85998 -27.17,4.88 -5.559999,-1.61999 -9.3799997,2.54999 -11.6199995,7.73001 -4.73,10.92002 -1.1800003,23.96 8.6199995,31.22001 10.600001,7.85998 23.500002,3.08999 25.38,-9.94001 0.84,-5.78 3.439998,-9.26001 8.11,-11.95001 3.650002,-2.10998 7.200001,-4.39999 11.25,-6.89001 -2.220001,-3.45999 -3.759998,-5.85999 -5.310001,-8.26001 z M 388.66998,313.07999 c 2.92002,-7.97 5.85001,-15.95002 8.76999,-23.92002 0.88001,-1.98999 2.04001,-3.91 2.60001,-5.98999 5.92001,-22.07998 7.63,-44.49 4.86999,-67.19 -1.91,-15.75 -6.20001,-30.53 -15.91,-43.61999 -3.23999,-4.36001 -3.09,-11.2 -6.20999,-15.7 -11.5,-16.56 -25.01999,-31.28 -42.58002,-41.76 -4.26999,-2.77999 -8.54001,-5.55999 -12.81,-8.33999 -1.35,-1.22 -2.53,-2.73001 -4.05999,-3.61 -28.94001,-16.660007 -59.94001,-26.960002 -93.39,-28.740001 -8.57,-0.449997 -17.62,2.980003 -25.79,1.339996 -9.80999,-1.970001 -18.85,-0.660003 -28.13,0.900002 -54.97,9.25 -94.980005,39.180003 -121.330004,87.990003 -3.139999,5.82001 -5.27,11.26 1.990002,17.59 -4.479999,-0.34 -6.849998,-0.52001 -9.509998,-0.72 -6.16,11.64 -8.270001,24.27 -10.810002,36.74 -0.27,1.34 -0.299999,3.35001 0.490002,4.18 5.189999,5.50999 3.700001,9.52999 -1.029999,14.89 -2.470001,2.8 -1.529998,8.61 -2.27,14.13999 3.139999,-1.42999 4.529999,-2.07 7.599998,-3.47 0.490002,12.23 2.450001,23.68001 0.900002,34.62999 -1.220001,8.63001 0.729999,15.73999 3.450001,23.18 1.75,4.79998 3.790001,9.51998 6.069999,14.08999 10.34,20.76001 23.57,39.37 41.160004,55.35001 2.529999,-1.63001 4.550003,-3.07001 6.699997,-4.26001 0.669998,-0.37 1.699998,-0.06 3.219998,-0.06 -1.80999,3.14002 -3.23,5.60001 -4.959996,8.60001 2.290001,1.57998 4.199996,2.91 6.279996,4.35 2.86,-3.69 5.28,-6.82998 7.71,-9.95999 0.61,0.37 1.22,0.73001 1.83,1.10001 -1.08999,4.91 -2.18,9.81 -3.62999,16.32998 4.34,-1.75 6.82,-2.75 10.05,-4.04 -0.61,3.04998 -1.07,5.39999 -1.5,7.55999 14.76,11.35001 33.33001,20.07999 42.96999,20.25 2.2,-3.14001 -0.36999,-8.51999 5.07001,-11.48999 0.36,4.31 0.33,7.60999 1.02,10.75 0.43,1.95999 1.54,4.69001 3.06,5.32001 7.89,3.25 15.87,7.41 24.42,2.45001 4.61,6.79999 11.67999,5.65 17.95999,5.84 7.16001,0.22 13.46001,-2.14002 16.34,-12.59 1.36,5.34 1.95,7.63001 2.75999,10.82001 11.47,-1.81 22.85001,-2.60001 33.67,-5.48999 44.60999,-11.92999 78.97,-38.5 105.57001,-75.73001 3.82001,-5.34 7.45001,-10.39002 7.11999,-17.79001 -0.17999,-4.12 0.39002,-10.69 8.32001,-9.10001 0.32999,0.07 1.31,-3.11999 1.98999,-4.79 l -0.04,-0.03 z m -24.89001,50.58999 c 1.64999,2.10999 1.98999,2.82001 2.54999,3.22 3.57,2.51999 7.13,5.04001 10.79,7.42002 3.73999,2.44 6.51001,5.20001 7.87,9.88 2.45001,8.37 7.60001,11.68 16.19,11.38001 7.95999,-0.28 14.85001,-3.38001 20.45999,-9.04001 4.57999,-4.62 7.84,-10.06 5.35001,-16.67001 -2.54999,-6.76999 -8.73999,-8.73999 -15.23001,-8.12 -8.31,0.79001 -14.79001,-2.57001 -21.12,-7.10999 -4.04,-2.89999 -8.26001,-5.54 -13.17999,-8.82998 -4.95001,6.45999 -9.28,12.10998 -13.70001,17.86999 l 0.02,-3e-5 z m 6.53,-230 c 4.17999,4.86 7.73001,8.94 11.23001,13.08 2.82001,3.33001 6.11999,3.62 9.82998,1.75 2.28,-1.14999 4.73002,-2.08999 6.79001,-3.55999 5.41001,-3.87 10.78,-6.51 17.98999,-6.43 8.07999,0.09 14.91001,-8.11999 16.13001,-16.84999 1.35998,-9.73001 -2.9,-18.71 -10.51999,-22.16 -8.38001,-3.790001 -17.61002,-0.68 -23.01999,6.55 C 394,112.39 388.41,118.14 382.78,123.74001 c -3.54999,3.52999 -7.85999,6.3 -12.47,9.91999 l -3e-5,0.01 z M 217.67999,68.459999 c 7.34,0.330002 9.76,-0.449997 10.09,-5.34 0.7,-10.529999 4.25999,-19.329998 10.60001,-27.920002 5.75,-7.790001 2.52999,-18.98 -5.19001,-25.6200009 -7.61999,-6.5599999 -17.61999,-7.04 -25.22,-1.2299995 -7.33999,5.6200004 -10.44,16.0599994 -5.11999,24.5899984 5.41,8.669998 6.14,17.57 6.33,27.120003 0.14,7.190002 1.47999,8.080001 8.5,8.389999 l 0.01,0.01 z M 71.459991,131.42 c -2.919998,-3.29 -5.150001,-6.1 -7.7,-8.59 -4.509999,-4.43 -7.55,-9.37999 -9.060002,-15.75 -2.52,-10.669996 -10.510002,-15.309996 -21.379997,-13.499998 -10.43,1.730003 -17.719999,10.939998 -17.32,21.839998 0.38,10.22999 7.72,18.75999 17.779999,18.3 7.290001,-0.34 12.489998,1.88001 17.559998,6.42 2.34,2.09 5.330002,3.44 8.690002,5.53 3.980004,-4.97 7.519997,-9.38001 11.419998,-14.25 h 0.01 z M 227.89999,450.73001 c 0,-3.54001 0.08,-6.10001 -0.01,-8.64999 -0.34,-9.38001 -1.05,-10.07001 -10.03999,-10.10999 -9.49001,-0.04 -10.37,0.84 -10.61,10.65 -0.04,1.82 -0.06,3.64999 -0.01,5.47 0.17,7.05999 -0.49,13.57 -6.25999,18.97 -4.45,4.16 -3.83001,10.11999 -2.16001,15.47 2.41001,7.76001 8.36,11.73999 16.12,12.98001 7.72999,1.23999 12.14,-3.98999 16.06,-9.29001 3.63999,-4.92001 5.94999,-11.11999 1.52,-16.14999 -5.53,-6.29001 -6.08,-12.87 -4.59,-19.34 l -0.02,-3e-5 z M 36.59,264.76999 35.790001,264.94 l 0.330002,4.01001 0.470001,-0.02 v -4.16 l -4e-6,-3e-5 z" /><path
               id="path66"
               style="fill:#ffffff;fill-opacity:1;fill-rule:nonzero;stroke:none"
               d="m 340.20001,114.89 c 17.56,10.48 31.09,25.2 42.58002,41.75999 3.13,4.5 2.97,11.34 6.20999,15.7 9.70999,13.09 14,27.87 15.91,43.62 2.75,22.69999 1.04999,45.12001 -4.86999,67.18998 -0.56,2.07999 -1.72,4 -2.60001,5.98999 -0.11999,-2.67999 -0.23999,-5.35998 -0.48999,-10.69 -6.48001,11.10001 -8.61999,20.87 -11,30.5 -0.26999,1.07999 1.76001,2.73001 2.72,4.10999 -0.67999,1.67001 -1.66,4.85998 -1.98999,4.79 -7.92999,-1.58999 -8.5,4.98002 -8.32,9.10001 0.32998,7.39999 -3.29999,12.45001 -7.12,17.79001 -26.6,37.23001 -60.95999,63.79999 -105.57001,75.73001 -10.82,2.89002 -22.19999,3.67999 -33.66999,5.48999 -0.81,-3.19 -1.4,-5.48001 -2.76,-10.82001 -2.88,10.45999 -9.17999,12.82001 -16.33999,12.59 -6.28,-0.19 -13.35001,0.95999 -17.96,-5.84 -8.55,4.95999 -16.53,0.79999 -24.41999,-2.45001 -1.53,-0.63 -2.63001,-3.36999 -3.06,-5.32001 -0.69,-3.14001 -0.66001,-6.44 -1.02001,-10.75 -5.42999,2.97001 -2.86,8.35999 -5.07,11.48999 -9.64,-0.17001 -28.21,-8.89001 -42.97,-20.25 0.42999,-2.16 0.9,-4.5 1.5,-7.55999 -3.22001,1.29998 -5.71,2.29998 -10.05001,4.04001 1.45,-6.51999 2.54,-11.42002 3.63,-16.32999 -0.61,-0.37 -1.22,-0.73001 -1.83,-1.10001 -2.43,3.13001 -4.85,6.26999 -7.71,9.95999 -2.07,-1.44 -3.989999,-2.76001 -6.28,-4.35 1.730003,-3 3.14,-5.45001 4.96,-8.60001 -1.51,0 -2.55,-0.31 -3.220002,0.06 -2.160004,1.19 -4.169999,2.61999 -6.699997,4.26001 -17.599999,-15.97 -30.82,-34.59 -41.16,-55.35001 -2.279999,-4.57 -4.310002,-9.29998 -6.07,-14.08999 -2.720001,-7.44001 -4.66,-14.54999 -3.450001,-23.18 1.55,-10.95001 -0.41,-22.39001 -0.900001,-34.63 -3.080002,1.41 -4.470001,2.03999 -7.599999,3.47 0.740002,-5.53 -0.2,-11.34 2.270001,-14.14 4.740001,-5.36 6.220001,-9.38 1.029999,-14.89 -0.779999,-0.83 -0.759999,-2.83999 -0.490002,-4.17999 2.540001,-12.48 4.650001,-25.10001 10.810001,-36.74001 2.66,0.2 5.029999,0.38001 9.509999,0.72 -7.260003,-6.33999 -5.130002,-11.77999 -1.990002,-17.58999 26.350002,-48.81 66.360004,-78.74 121.330004,-87.99 9.28,-1.559997 18.33,-2.870002 28.13001,-0.900001 8.16999,1.639999 17.22,-1.790001 25.79,-1.339997 33.46,1.769997 64.44999,12.07 93.38999,28.739998 1.54001,0.89 2.72,2.39 4.06,3.61 -1.25,0.25 -2.48999,0.5 -4.89002,0.98 4.91001,3.73001 8.76999,6.71 12.69,9.61001 2.91001,2.15 4.46,1 5.01001,-2.25 l 0.04,0.03 z M 274.19,201.39999 c 3.60999,-3.03999 7,-6.38 10.85999,-9.05999 16.82001,-11.67 33.83001,-23.07001 50.60998,-34.80001 2.53,-1.77 5.78,-4.66 5.97,-7.24 0.84,-11.39 -3.6,-22.55 -19.38,-21.97 -2.44,-6.09 -5.51001,-11.09 -13.51001,-8.98 -1.23999,0.33 -2.92999,-0.21 -4.17001,-0.83 -14.04001,-6.97 -28.28,-13.6 -41.95002,-21.229997 -9.16,-5.11 -17.11999,-6.480003 -26.20999,0.160004 -6.47999,4.739993 -8.33999,10.680003 -8.35,17.949993 -0.05,23.41001 -0.08,46.82001 -0.18,70.22001 -0.02,3.47 -0.39,6.92999 -0.57,9.97 -7.36,1.92999 -6.09,-4.7 -9.16001,-7.02001 -1.42,2.4 -2.72,4.59 -4.38,7.39 -3.07001,-8.08999 -5.19,-55.86999 -3.67,-72.27 0.92999,7.23001 1.35001,15.31001 3.14,23.07 1.78999,7.74001 -1.33,16.24001 3.59,23.47001 0.78999,-6.9 0.96,-13.73 0.75,-20.54 -0.22001,-7.28 -1.05001,-14.53999 -1.13001,-21.82 -0.08,-7.44999 3.89,-15.98 -6.39999,-20.16999 -0.42,-0.17 -0.4,-1.34 -0.66001,-2.02 -1.83999,-4.72 -3.71,-9.42 -5.58999,-14.190005 -5.52001,2.169999 -11.18,1.529999 -16.75,2.940003 -27.04001,6.810002 -51.53,18.390002 -74.03,34.680012 -5.17,3.75 -11.14,6.38999 -17.500002,9.96 -0.169998,9.27001 7.120002,15.25 14.290002,20.7 19.21,14.58 38.79999,28.64999 58.22001,42.94 4.00999,2.95 7.94,6.01 12.41,9.4 -3.19,5.97999 -5.86999,11 -8.88,16.66 -3.72,-1.83 -6.87,-2.87 -9.44001,-4.71001 -20.82,-14.88 -41.89,-29.44999 -62.08999,-45.13 -7.67,-5.96001 -14.92,-10.42 -25.350001,-9.48 0.330002,1.76 0.14,3.83 1.059998,5.10001 3.050003,4.17999 2.470001,7.97999 0.120003,12.21001 -10.180001,18.27 -14.510003,38.31999 -16,58.83 -1.310002,17.89999 3.490001,34.83001 12.889999,50.22 3.760002,6.14999 5.809998,6.67999 12.779999,4.56 2.089996,-0.64002 4.209999,-1.34 6.139999,-2.34 23.360003,-12.07999 46.690003,-24.22 70.030003,-36.34 2.50999,-1.29998 5.03999,-2.57 8.25999,-4.20999 2.64999,5.79999 4.99001,10.92001 7.28999,15.97 -1.99,1.72 -2.96,2.89002 -4.19999,3.56 -21.86,11.81 -43.76,23.54999 -65.65,35.31 -4.18,2.23999 -8.650006,4.06 -12.470006,6.79001 -7.360001,5.26001 -8.409996,9.64001 -4.93,17.94 4.319999,10.29001 10.650006,19.01999 19.550006,25.98999 20.5,16.06 43.61999,26.54001 68.83,32.35998 7.28999,1.68 13.97,2.91001 14.44,12.57999 3.14,-3.07001 5.05,-6.51001 7.67999,-7.19 5.13001,-1.32999 5.97,-4.42001 6.30001,-8.78 1.35,-17.85001 3.21,-35.66998 4.19,-53.53 0.7,-12.76999 0.21001,-25.59 0.39999,-38.38998 0.11,-7.31 2.29,-8.97 9.24001,-8.53 6.71001,0.42001 7.03,5.01999 7.41,10 1.94,25.57001 1.72,51.08999 -1.41,76.57001 -0.49001,3.97 -0.62,8.05999 -0.28,12.04 0.73,8.47001 4.39,10.96 12.41,8.9 2.47,-0.63001 4.86,-1.81 7.35001,-2.04999 20.71001,-1.98001 39.96001,-8.48999 58.18001,-18.34 1.82998,-0.98999 4.98001,-2.45001 5.91,-1.70001 4.76001,3.84 7.45001,-0.08 10.35999,-2.33999 3.16,-2.46 6.1,-5.26999 8.75,-8.26999 7.35,-8.34 6.91,-16.81 -1.73001,-24.21 -14.15,-12.13 -28.44001,-24.11001 -43,-35.73999 -11.06,-8.83999 -22.63999,-17.02999 -36.53,-27.41 2.96,-1.51001 4.91,-2.51001 6.85,-3.5 0.45,4.72 2.53,7.82999 8.65,6.82001 -2.92002,-2.23999 -5.82999,-4.48999 -8.75,-6.73001 1.54998,-2.32999 3.1,-4.66001 4.45999,-6.69001 1.57998,0.26001 2.42999,0.15 2.97,0.51999 18.47,12.39002 36.98999,24.70002 55.32001,37.29999 7.80999,5.37 14.85,11.9 22.82998,16.97 11.65,7.39002 25.04999,-0.39999 25.35001,-14.03 0.07,-3.17999 0.73001,-6.54 1.95999,-9.45999 10.82999,-25.63998 12.69,-52.33 9.06,-79.53 -1.48999,-11.16999 -6.41001,-22.30999 -5.76999,-33.22999 0.64999,-11.11 -5.89999,-15.25 -11.23999,-20.85001 -2.51999,2.02001 -4.20001,4.05 -6.37,4.97 -7.01001,2.98 -14.75,4.61 -21.20001,8.45 -20.36999,12.12 -40.28,24.99001 -60.35,37.61 -3.32001,2.08 -6.51001,4.36 -9.60999,6.44 -8.38,-8.72999 -8.39,-8.96 -0.98999,-14.08 1.51001,2.99001 3.64001,3.06 6.26001,1.44 10.47,-6.47 21,-12.85 31.42999,-19.39 1.64002,-1.02999 2.89002,-2.67999 4.32001,-4.03999 -0.42001,-0.64 -0.82999,-1.28999 -1.25,-1.92999 -3.54001,2.06 -7.03,4.2 -10.62,6.16 -5.69,3.12 -11.44,6.12 -17.17001,9.17999 l 6e-5,-0.0101 z M 102.45,111.18 l 1.75,2.99 c 12.19,-6.47 24.39,-12.94 36.58,-19.410005 -15.72,-0.309998 -27.05,7.989995 -38.33,16.419995 z m 203.86,204.85 c 0.53,-0.70001 1.06,-1.39002 1.58999,-2.09 -6.41,-9.17999 -16.55999,-16.64001 -27.32,-18.69 9.79001,7.89999 17.76001,14.34 25.73001,20.76999 v 0.01 z m -77.79001,89.98999 c 0.25,0.81 0.49,1.60998 0.74,2.42001 10.93001,-2.48999 21.86001,-4.98001 32.79,-7.48001 l -0.63001,-2.66 c -11.28,1.14999 -22.19,3.98001 -32.89999,7.72 z m -92.15,-116.17999 -1.22,-2.4 c -9.41,1.39002 -17.83999,4.75 -23.69,13.32999 l 24.89999,-10.94 0.01,0.01 z m 86.14,73.63998 c 5.7,-7.22 5.79,-11.76999 0,-18.20999 z M 78.330002,312.98999 C 69.090004,312.69 62.280003,316.48999 57.82,324.41 c 6.840004,-3.80999 13.669998,-7.60998 20.510002,-11.42001 z m 62.319988,-121 -1.44,1.64 c 6.92,8.46001 9.91,10.48 18.69,11.35001 -6.72999,-5.07001 -11.99,-9.03 -17.25,-13 v 0.01 z m 81.56,181.70001 c -0.77,0.23001 -1.53,0.45999 -2.3,0.69 -0.34,3.75 -1.71001,7.81 4.89,11.92002 -1.16001,-5.63001 -1.87,-9.12 -2.59,-12.60999 z M 110.82,171.55 l -1.58,2.39 10.27,6.52001 c 0.48,-0.73 0.95999,-1.46001 1.44,-2.19001 -3.38,-2.24 -6.76001,-4.47999 -10.14,-6.72 z m 47.18999,-84.609998 c 0.31,0.580002 0.62,1.150002 0.93,1.730004 1.89999,-0.769997 3.78999,-1.550003 5.69,-2.32 -1.53,-1.580002 -2.69,-2.010002 -3.53999,-1.669998 -1.15,0.449997 -2.06,1.480003 -3.08001,2.269997 v -0.01 z" /><path
               id="path68"
               style="fill:#ffffff;fill-opacity:1;fill-rule:nonzero;stroke:none"
               d="m 363.76999,363.67001 c 4.42001,-5.76001 8.75,-11.41 13.70001,-17.86999 4.92001,3.28 9.14002,5.92999 13.17999,8.82998 6.34,4.54001 12.82001,7.91001 21.12,7.10999 6.48999,-0.61999 12.67999,1.35001 15.23001,8.12 2.48999,6.60998 -0.76999,12.04998 -5.35001,16.67001 -5.61999,5.66 -12.5,8.76001 -20.45999,9.04001 C 392.60001,395.88 387.45001,392.56 385,384.19 c -1.37,-4.67999 -4.13,-7.45001 -7.87,-9.88 -3.66,-2.38001 -7.23001,-4.9 -10.79,-7.42002 -0.56,-0.39999 -0.9,-1.10998 -2.54999,-3.22 l -0.02,3e-5 z" /><path
               id="path70"
               style="fill:#ffffff;fill-opacity:1;fill-rule:nonzero;stroke:none"
               d="m 370.29999,133.67 c 4.60998,-3.62 8.92001,-6.39 12.47,-9.92 5.63,-5.6 11.22,-11.35 15.95999,-17.69 5.41,-7.230006 14.64002,-10.339999 23.01999,-6.550005 7.61999,3.449995 11.89001,12.430005 10.51999,22.160005 -1.22,8.74 -8.04999,16.94 -16.13001,16.85 -7.20999,-0.08 -12.57998,2.55001 -17.98999,6.43 -2.05999,1.47 -4.51001,2.41 -6.79001,3.55999 -3.70999,1.87 -7.01,1.58001 -9.82998,-1.75 -3.5,-4.14 -7.06,-8.22999 -11.23001,-13.08 l 3e-5,-0.01 z m 30.16,-13.12 C 411.34,122.07999 414.34,119.81 415.34,109.99999 c -8.51001,0.82 -9.47,1.47 -14.88001,10.55001 z M 397.87,133.73999 c -4.93,-0.12 -8.17002,1.63 -7.92002,7.24001 2.64002,-2.41001 5.28,-4.83001 7.92002,-7.24001 z m -16.91001,1.53 c 4.96668,-1.56667 8.34668,-4.20001 10.14002,-7.9 -3.51001,2.73999 -5.88001,4.57999 -10.14002,7.9 z" /><path
               id="path72"
               style="fill:#ffffff;fill-opacity:1;fill-rule:nonzero;stroke:none"
               d="m 217.67999,68.459999 c -7.02,-0.309997 -8.36,-1.209999 -8.5,-8.389999 -0.19,-9.55 -0.92,-18.450001 -6.33,-27.120003 -5.32001,-8.529999 -2.22,-18.98 5.12,-24.5900002 7.6,-5.8200002 17.6,-5.3299999 25.22,1.2299995 7.71,6.6399997 10.94,17.8299997 5.19,25.6200027 -6.34,8.59 -9.89999,17.400002 -10.60001,27.919998 -0.33,4.89 -2.75,5.669998 -10.08999,5.340004 l -0.01,-0.01 z m -0.63,-33.07 c 1.41,-5.84 9.05,-10.52 3.61,-18.549999 -4.41001,6.209999 -4.99001,12.23 -3.61,18.549999 z m -3.01,24.520001 c 1.21001,0.290001 2.42,0.580002 3.62,0.86 -0.85001,-4.889999 5.25,-8.170002 0.47999,-14.049999 l -4.1,13.189999 z" /><path
               id="path74"
               style="fill:#ffffff;fill-opacity:1;fill-rule:nonzero;stroke:none"
               d="m 55.110001,337.06 c 1.540001,2.39999 3.09,4.81 5.310001,8.26001 -4.049999,2.48999 -7.59,4.79001 -11.25,6.89001 -4.670002,2.69 -7.279999,6.16001 -8.110001,11.95001 -1.880001,13.03 -14.779998,17.81 -25.379999,9.94001 -9.8,-7.26999 -13.3500002,-20.29999 -8.6199997,-31.22 2.25,-5.19001 6.0700007,-9.35999 11.6199997,-7.73002 10.190001,2.98002 18.520003,-1.07 27.17,-4.88 0.959999,-0.42001 2.079998,-0.48001 4.150002,-0.92999 1.59,2.41 3.32,5.04001 5.060001,7.67001 -2.52,0.73001 -5.169998,1.35001 -3.439998,5.54001 1.159999,-1.82999 2.329998,-3.66 3.490001,-5.48001 l -7e-6,-0.01 z M 40.09,346.51001 c -7.119999,-2.16 -11.07,-1.07001 -15,6.04001 5.880001,-2.37 9.600002,-3.85999 15,-6.04001 z" /><path
               id="path76"
               style="fill:#ffffff;fill-opacity:1;fill-rule:nonzero;stroke:none"
               d="m 71.470001,131.42 c -3.900001,4.86999 -7.440002,9.28 -11.419998,14.25 -3.349998,-2.09 -6.349998,-3.44 -8.690002,-5.53 -5.07,-4.53999 -10.260003,-6.76 -17.559998,-6.42 -10.060001,0.46001 -17.41,-8.07 -17.780001,-18.3 -0.399999,-10.91 6.89,-20.110002 17.320002,-21.839998 10.860001,-1.809998 18.860001,2.830002 21.379997,13.499998 1.5,6.37001 4.549999,11.32 9.060002,15.75 2.539997,2.5 4.780002,5.31 7.7,8.59 h -0.01 z m -36.479999,-4.08 c 1.380001,-7.94001 2.389999,-13.75 3.389999,-19.57 L 36.59,107.09 c -3.459999,3.47 -6.93,6.93 -10.58,10.58999 3.120001,3.35 5.289999,5.69001 8.97,9.65 l 0.01,0.01 z" /><path
               id="path78"
               style="fill:#ffffff;fill-opacity:1;fill-rule:nonzero;stroke:none"
               d="m 227.89999,450.73001 c -1.49,6.45999 -0.94,13.04999 4.59,19.34 4.42999,5.04001 2.11,11.23999 -1.52,16.14999 -3.92,5.29999 -8.33001,10.53 -16.06,9.29001 -7.75,-1.23999 -13.71001,-5.22 -16.12,-12.98001 -1.66,-5.35001 -2.28,-11.31 2.16001,-15.47 5.77,-5.39002 6.42999,-11.91001 6.25999,-18.97 -0.04,-1.82001 -0.03,-3.65 0.01,-5.47 0.24,-9.81 1.11999,-10.69001 10.61,-10.65 8.99,0.04 9.69999,0.73999 10.03999,10.10999 0.09,2.54998 0.01,5.1 0.01,8.64999 l 0.02,3e-5 z M 223.03,446.36002 c -0.88001,-0.10999 -1.76,-0.23002 -2.64,-0.34 -2.66667,4.42001 -2.29666,8.65335 1.11,12.70001 0.60001,-4.83999 1.07001,-8.6 1.53999,-12.35 l -0.01,-0.01 z m -5.86,26.51001 c 1.06,0.5 2.13,1.01001 3.19,1.51001 0.78999,-2.06 1.58,-4.12 2.37,-6.17002 -0.84,-0.39001 -1.69001,-0.76999 -2.53,-1.16 -1.01,1.94 -2.02001,3.88 -3.02001,5.82001 h -0.01 z" /><path
               id="path80"
               style="fill:#000000;fill-opacity:1;fill-rule:nonzero;stroke:none"
               d="m 388.67001,313.07999 c -0.95999,-1.38001 -2.98001,-3.03 -2.72,-4.10999 2.38001,-9.63 4.51999,-19.39999 11,-30.5 0.25,5.32999 0.37,8.01001 0.48999,10.69 -2.92001,7.98001 -5.85,15.95002 -8.76999,23.92002 z" /><path
               id="path82"
               style="fill:#000000;fill-opacity:1;fill-rule:nonzero;stroke:none"
               d="m 340.20001,114.89 c -0.54999,3.25 -2.1,4.41 -5.01001,2.25 -3.92001,-2.9 -7.78,-5.89 -12.69,-9.61 2.39001,-0.48 3.64001,-0.73 4.89001,-0.98 4.26999,2.77999 8.54001,5.55999 12.81,8.34 z" /><path
               id="path84"
               style="fill:#ffffff;fill-opacity:1;fill-rule:nonzero;stroke:none"
               d="m 36.59,264.76999 v 4.16 l -0.470001,0.02 -0.330002,-4.01001 0.799999,-0.17001 4e-6,3e-5 z" /><path
               id="path86"
               style="fill:#000000;fill-opacity:1;fill-rule:nonzero;stroke:none"
               d="m 254.92999,275.48999 c -1.94999,1 -3.89999,1.98999 -6.85,3.5 13.89001,10.38001 25.47,18.57001 36.53,27.41 14.55999,11.63001 28.85,23.62 43,35.73999 8.64001,7.4 9.07998,15.87 1.73001,24.21 -2.65,3 -5.59,5.82 -8.75,8.26998 -2.91001,2.26001 -5.60001,6.18 -10.35999,2.34 -0.92999,-0.75 -4.07999,0.70999 -5.91,1.70001 -18.23001,9.85001 -37.47,16.35999 -58.18,18.34 -2.49,0.23999 -4.88,1.42001 -7.35,2.04999 -8.02001,2.05999 -11.67999,-0.43 -12.41001,-8.9 -0.33999,-3.98001 -0.21,-8.07 0.28,-12.04001 3.13001,-25.48001 3.36,-51 1.41001,-76.57 -0.38001,-4.98001 -0.7,-9.57999 -7.41001,-10 -6.96,-0.44 -9.13,1.22 -9.24,8.53 -0.2,12.79998 0.28999,25.61999 -0.4,38.39001 -0.97999,17.87 -2.83999,35.67999 -4.19,53.53 -0.33,4.35999 -1.17,7.45001 -6.3,8.78 -2.63001,0.67999 -4.55,4.11999 -7.67999,7.19 -0.48,-9.67001 -7.15,-10.89999 -14.44001,-12.57999 -25.20999,-5.82 -48.33,-16.29998 -68.83,-32.36001 -8.9,-6.97 -15.229994,-15.70001 -19.550001,-25.98999 -3.480004,-8.29999 -2.430001,-12.67999 4.93,-17.94 3.82,-2.73002 8.300001,-4.54999 12.470001,-6.79001 21.89001,-11.76001 43.79,-23.5 65.65,-35.31 1.24001,-0.67001 2.2,-1.85001 4.2,-3.56 -2.31,-5.04999 -4.65,-10.17001 -7.28999,-15.97 -3.22001,1.64002 -5.75001,2.91 -8.26,4.20999 -23.34,12.12 -46.67,24.26001 -70.029998,36.34 -1.940002,1 -4.050003,1.70001 -6.139999,2.34 -6.970001,2.11999 -9.029999,1.58999 -12.779999,-4.56 -9.400001,-15.39002 -14.200001,-32.32001 -12.889999,-50.22 1.5,-20.51 5.819999,-40.56 16,-58.83001 2.36,-4.22999 2.93,-8.03999 -0.120003,-12.21 -0.919998,-1.26 -0.730003,-3.34 -1.059998,-5.10001 10.430001,-0.94 17.669999,3.52001 25.349996,9.48 20.2,15.69 41.27001,30.25 62.09,45.13 2.57001,1.84 5.72,2.89 9.44,4.71001 3.02001,-5.66 5.69,-10.67 8.88001,-16.66 -4.47,-3.39 -8.4,-6.45 -12.41001,-9.4 -19.42,-14.3 -39.02,-28.36 -58.22,-42.94 -7.17,-5.45 -14.47,-11.42999 -14.289999,-20.7 6.349999,-3.57001 12.319999,-6.22 17.499999,-9.96001 22.50001,-16.29 46.98,-27.87 74.03001,-34.679995 5.57,-1.400002 11.22999,-0.760002 16.75,-2.940002 1.88,4.769996 3.75,9.480007 5.58999,14.189997 0.26,0.67 0.24001,1.85 0.66001,2.02 10.28999,4.19 6.32,12.73 6.39999,20.17 0.08,7.28 0.91,14.53999 1.13001,21.81999 0.21,6.82001 0.04,13.64 -0.75,20.54001 -4.92,-7.23 -1.80001,-15.72 -3.59,-23.47 -1.8,-7.76 -2.21001,-15.84 -3.14,-23.07 -1.52,16.4 0.60001,64.18 3.67,72.27 1.66,-2.80001 2.96001,-4.99001 4.38,-7.39 3.07001,2.32 1.80001,8.94 9.16001,7.02 0.17999,-3.03999 0.55999,-6.5 0.57,-9.97 0.10001,-23.41 0.13001,-46.81999 0.18,-70.22 0.01,-7.27 1.86999,-13.21 8.35,-17.949998 9.09,-6.64 17.05001,-5.279999 26.20999,-0.160004 13.68,7.630002 27.91001,14.260002 41.95002,21.229992 1.23999,0.62001 2.92999,1.16001 4.17001,0.83001 8,-2.11 11.07001,2.89 13.51001,8.97999 15.78,-0.57 20.23001,10.58 19.38,21.97 -0.19,2.57001 -3.44,5.47 -5.97,7.24001 -16.78,11.72999 -33.79001,23.11999 -50.60998,34.8 -3.85999,2.67999 -7.25,6.02001 -10.85999,9.05 -4.32,2.86 -8.64001,5.72001 -12.97,8.58001 -7.39999,5.11999 -7.39,5.36 0.98999,14.08 3.10001,-2.08 6.29999,-4.35001 9.60999,-6.44 20.07,-12.62 39.98999,-25.49001 60.35,-37.61001 6.45002,-3.83999 14.20002,-5.47 21.20002,-8.44999 2.16,-0.92 3.85,-2.96001 6.36999,-4.97 5.34,5.6 11.88001,9.74 11.23999,20.85 -0.64001,10.92 4.28,22.06 5.76999,33.23 3.63,27.2 1.76999,53.87999 -9.06,79.52998 -1.23001,2.92002 -1.89001,6.28 -1.95999,9.45999 -0.29999,13.64002 -13.70001,21.43 -25.35001,14.03 -7.98001,-5.07001 -15.01998,-11.6 -22.82998,-16.97 -18.32001,-12.60998 -36.85001,-24.91 -55.32001,-37.29999 -0.54001,-0.35998 -1.39001,-0.26001 -2.97,-0.51999 -1.35001,2.03 -2.91,4.35999 -4.46001,6.69001 l 0.11,-0.09 -0.0101,0.02 z m 118.14002,-30.04001 c 0.26001,-18.83 -2.03,-36.86999 -7.76001,-54.41 -4.98999,-15.27001 -10.29001,-18.37 -23.87,-10.49001 -23.98001,13.92 -47.19,29.17 -70.70999,43.88001 -4.76001,2.97999 -6.67001,7.17999 -6.51001,12.92 0.17999,6.91 -0.82999,13.85 -0.66,20.76998 0.06,2.51999 1.45999,5.56 3.25,7.37 2.79001,2.81 6.44,4.76001 9.72,7.07999 17.88,12.63 35.78,25.25 53.63998,37.91998 2.98001,2.10998 5.62,4.70001 8.67002,6.70001 8.97,5.87 13.95001,4.79001 18.45001,-4.57999 10.23001,-21.32998 17.08999,-43.52999 15.79001,-67.14999 l -0.01,-0.01 z m -166.11,75.12 -0.66001,-0.05 c 0,-4.01001 0.10001,-8.03 -0.02,-12.04001 -0.57001,-19.11999 0.89999,-18.51999 -15.03,-24.72 -0.67,-0.26001 -1.38,-0.60001 -1.89,-1.09 -6.00999,-5.76001 -11.5,-3.23001 -17.73,0.19001 -22.05,12.10998 -44.36999,23.73001 -66.58,35.55999 -1.93,1.03 -3.87,2.07001 -5.660001,3.32001 -6.660003,4.64999 -7.449997,7.04999 -4.220001,14.79001 3.879997,9.29001 10.090002,16.88 18.090002,22.95001 22.49999,17.07001 47.59998,28.17999 75.53999,32.79001 10.78999,1.78 12.42,1.28 13.47,-9.54001 2.00999,-20.67001 3.17999,-41.42001 4.7,-62.13998 l -0.01,-0.0201 z M 64.209999,248.95 c 0.800003,14.93 3.32,28.84999 10.599999,41.53999 C 78.689995,297.25 79.709999,297.88 87.089996,294.88 113.89999,283.98001 139.59,270.86002 163.75,254.90001 c 8.67,-5.73 8.14,-18.66 -0.17,-24.53999 -22.06999,-15.61 -44.08999,-31.30001 -65.9,-47.27001 -10.099998,-7.39999 -11.840004,-7.35 -17.799995,4.13001 -10.129997,19.5 -14.120003,40.56999 -15.690003,61.74 l 0.02,-0.01 z M 204.57999,151.38 h -0.37 c 0,-5.47999 0,-10.94999 0,-16.42999 0,-5.83999 0.05,-11.68 0.01,-17.53 -0.12,-16.77 -2.92,-19.149998 -19.45,-16.64 -0.36,0.05 -0.72,0.1 -1.08,0.19001 -27.34,6.78 -52.43001,18.05999 -73.46,37.22999 -8.33,7.59 -8.41,9.94 0.83,16.99001 19.43,14.81999 38.99,29.49 58.91999,43.64 13.71001,9.72999 13.92,9.1 28.89999,1.24 4.61,-2.42 5.99001,-5.28999 5.83001,-10.35 -0.4,-12.77001 -0.13001,-25.55001 -0.13001,-38.33001 l 2e-5,-0.01 z m 28.91999,1.58001 h -0.36 c 0,12.39999 0.45,24.83 -0.14,37.19999 -0.47999,10.17 7.95,12.13001 13.69001,16.57001 5.19999,4.03 8.83999,-0.75999 12.53999,-3.2 21.92001,-14.46 43.73001,-29.06999 65.56,-43.66 2.42001,-1.62 4.83999,-3.27 7.07998,-5.13001 4.07999,-3.38 4.51001,-7.33999 1.10999,-11.44 -1.62,-1.94999 -3.35999,-3.97 -5.45999,-5.3 -23.75,-15.03 -47.42999,-30.2 -75.53,-36.21 -12.66,-2.709998 -17.89,0.84 -18.38001,13.97 -0.47,12.38 -0.1,24.8 -0.1,37.20001 h -0.01 z M 231.58998,394 c 8.97,-1.07001 15.81,-1.53 22.51,-2.73999 24.89001,-4.51001 47.66998,-13.70001 66.39999,-31.28 8.10998,-7.60998 8.54001,-10.41 -0.17999,-17.54001 -22.32001,-18.23001 -45.25,-35.70999 -67.80001,-53.66998 -4.91,-3.91 -9.16999,-2.59 -14.14,-0.39999 -5.16,2.27999 -5.47999,6.26001 -5.19999,10.82 0.22,3.64002 0.58999,7.29001 0.61,10.94001 0.07,17.11001 0.28,34.22 -0.05,51.32 -0.19,10.09 -1.28999,20.16001 -2.13999,32.54999 l -0.01,-3e-5 z m 28.40999,-149.38 c -1.22,-5.64 -1.67999,-11.59 -3.81,-16.87 -7.17999,-17.75999 -25.04001,-28.12 -43.77,-26.09 -17.22,1.86 -32.06999,15.77001 -35.97,33.69001 -4.59,21.1 2.61,37.95001 20.66999,45.32 7.60001,3.10001 16.14,4.45999 24.39,5.23999 11.32,1.07999 20.56,-3.82 27.56,-12.79998 6.48,-8.31 10.34001,-17.56 10.93001,-28.48 v -0.01 z" /><path
               id="path88"
               style="fill:#000000;fill-opacity:1;fill-rule:nonzero;stroke:none"
               d="M 102.45,111.18 C 113.73,102.76 125.07,94.449997 140.78,94.760002 128.59,101.23 116.39,107.70001 104.2,114.17 Z" /><path
               id="path90"
               style="fill:#000000;fill-opacity:1;fill-rule:nonzero;stroke:none"
               d="m 261.23001,209.97 c 4.32001,-2.86 8.64999,-5.72 12.97,-8.58 5.72,-3.05 11.48001,-6.05 17.17002,-9.17 3.58999,-1.97 7.07998,-4.1 10.61999,-6.16 0.42001,0.64 0.82999,1.28999 1.25,1.92999 -1.42999,1.36 -2.67999,3.00999 -4.32001,4.03999 -10.42999,6.54 -20.95999,12.92 -31.42999,19.39 -2.61999,1.62 -4.75,1.54 -6.26001,-1.44 v -0.01 z" /><path
               id="path92"
               style="fill:#000000;fill-opacity:1;fill-rule:nonzero;stroke:none"
               d="m 306.31,316.03 c -7.97,-6.42999 -15.94,-12.87 -25.73001,-20.76999 10.76001,2.04001 20.91,9.51001 27.32,18.69 -0.52999,0.70001 -1.05999,1.39002 -1.58999,2.09 v -0.01 z" /><path
               id="path94"
               style="fill:#000000;fill-opacity:1;fill-rule:nonzero;stroke:none"
               d="m 228.52,406.01999 c 10.71001,-3.73001 21.61,-6.57001 32.90001,-7.72 l 0.63001,2.66 c -10.92999,2.48999 -21.86,4.98001 -32.79001,7.48001 -0.25,-0.81 -0.49001,-1.60998 -0.74001,-2.42001 z" /><path
               id="path96"
               style="fill:#000000;fill-opacity:1;fill-rule:nonzero;stroke:none"
               d="m 136.36999,289.84 -24.9,10.94 c 5.85,-8.57999 14.28,-11.94 23.69,-13.32999 l 1.22,2.4 -0.01,-0.01 z" /><path
               id="path98"
               style="fill:#000000;fill-opacity:1;fill-rule:nonzero;stroke:none"
               d="m 222.50999,363.48001 v -18.20999 c 5.79,6.45001 5.7,10.98999 0,18.20999 z" /><path
               id="path100"
               style="fill:#000000;fill-opacity:1;fill-rule:nonzero;stroke:none"
               d="m 78.330002,312.98001 c -6.839997,3.81 -13.669998,7.60999 -20.510002,11.42001 4.459999,-7.92001 11.269996,-11.72 20.510002,-11.42001 z" /><path
               id="path102"
               style="fill:#000000;fill-opacity:1;fill-rule:nonzero;stroke:none"
               d="m 140.64999,191.99001 c 5.26,3.96 10.52001,7.91999 17.25,13 -8.78,-0.88001 -11.77,-2.89 -18.69,-11.35001 l 1.44,-1.64 v -0.01 z" /><path
               id="path104"
               style="fill:#000000;fill-opacity:1;fill-rule:nonzero;stroke:none"
               d="m 222.21001,373.67999 c 0.72,3.48999 1.44,6.98001 2.58999,12.60999 -6.6,-4.10999 -5.22999,-8.17002 -4.89,-11.92002 0.77001,-0.23001 1.53,-0.45999 2.30001,-0.69 z" /><path
               id="path106"
               style="fill:#000000;fill-opacity:1;fill-rule:nonzero;stroke:none"
               d="m 110.82,171.55 c 3.38,2.24001 6.76,4.48 10.14,6.72 -0.48,0.73 -0.96,1.46001 -1.44,2.19001 l -10.27,-6.52001 1.58,-2.39 z" /><path
               id="path108"
               style="fill:#000000;fill-opacity:1;fill-rule:nonzero;stroke:none"
               d="m 254.82001,275.57999 c 2.92001,2.23999 5.82998,4.48999 8.75,6.73001 -6.10999,1 -8.2,-2.10001 -8.65,-6.82001 l -0.11,0.09 z" /><path
               id="path110"
               style="fill:#000000;fill-opacity:1;fill-rule:nonzero;stroke:none"
               d="m 158.00999,86.940002 c 1.02001,-0.779998 1.93,-1.819999 3.08001,-2.269996 0.86,-0.330002 2.00999,0.09 3.53999,1.669998 -1.89999,0.769997 -3.8,1.550003 -5.69,2.32 -0.31,-0.580002 -0.62,-1.150002 -0.93,-1.730004 v 0.01 z" /><path
               id="path112"
               style="fill:#000000;fill-opacity:1;fill-rule:nonzero;stroke:none"
               d="m 400.45999,120.54 c 5.41001,-9.09 6.38001,-9.73 14.88001,-10.55 -1,9.81 -4.01001,12.08 -14.88001,10.55 z" /><path
               id="path114"
               style="fill:#000000;fill-opacity:1;fill-rule:nonzero;stroke:none"
               d="m 397.87,133.74 c -2.64002,2.41001 -5.28,4.83001 -7.92002,7.24001 -0.25,-5.61999 2.98999,-7.36999 7.92002,-7.24001 z" /><path
               id="path116"
               style="fill:#000000;fill-opacity:1;fill-rule:nonzero;stroke:none"
               d="m 380.95999,135.27 c 4.26999,-3.32 6.63001,-5.16 10.14002,-7.9 -1.80002,3.70001 -5.18003,6.33334 -10.14002,7.9 z" /><path
               id="path118"
               style="fill:#000000;fill-opacity:1;fill-rule:nonzero;stroke:none"
               d="m 217.05,35.389999 c -1.39,-6.319999 -0.8,-12.34 3.61,-18.549999 5.45,8.029999 -2.19,12.709999 -3.61,18.549999 z" /><path
               id="path120"
               style="fill:#000000;fill-opacity:1;fill-rule:nonzero;stroke:none"
               d="M 214.03999,59.91 218.14,46.720001 c 4.77,5.880001 -1.33,9.169998 -0.48,14.049999 -1.21,-0.29 -2.41999,-0.580001 -3.61999,-0.86 z" /><path
               id="path122"
               style="fill:#000000;fill-opacity:1;fill-rule:nonzero;stroke:none"
               d="m 40.09,346.51001 c -5.41,2.17999 -9.119999,3.67001 -15,6.04001 3.940001,-7.10999 7.880001,-8.20001 15,-6.04001 z" /><path
               id="path124"
               style="fill:#000000;fill-opacity:1;fill-rule:nonzero;stroke:none"
               d="m 55.110001,337.06 c -1.16,1.82998 -2.330002,3.66 -3.490002,5.48001 -1.73,-4.17999 0.91,-4.81 3.439999,-5.54001 l 0.05,0.05 z" /><path
               id="path126"
               style="fill:#000000;fill-opacity:1;fill-rule:nonzero;stroke:none"
               d="m 34.990002,127.34 c -3.680001,-3.96 -5.860001,-6.30001 -8.970002,-9.65001 3.66,-3.66 7.119999,-7.12 10.579998,-10.59 l 1.790001,0.68 c -1.009998,5.81 -2.02,11.62 -3.389999,19.57 l -0.01,-0.01 z" /><path
               id="path128"
               style="fill:#000000;fill-opacity:1;fill-rule:nonzero;stroke:none"
               d="m 223.02,446.35999 c -0.47,3.76001 -0.94,7.51001 -1.53999,12.35 -3.40666,-4.04666 -3.77667,-8.28 -1.11,-12.70001 0.88001,0.10998 1.75999,0.23001 2.64,0.34 l 0.01,0.01 z" /><path
               id="path130"
               style="fill:#000000;fill-opacity:1;fill-rule:nonzero;stroke:none"
               d="m 217.17,472.87 c 1.00999,-1.94001 2.02,-3.88001 3.02,-5.82001 0.84,0.39001 1.69,0.76999 2.53,1.16 -0.78999,2.06 -1.58,4.12 -2.36999,6.17001 -1.06,-0.5 -2.13001,-1.01 -3.19001,-1.51 z" /><path
               id="path132"
               style="fill:#ffffff;fill-opacity:1;fill-rule:nonzero;stroke:none"
               d="m 259.98999,244.61 c -0.59,10.92 -4.45,20.17 -10.92999,28.48 -7,8.98001 -16.24001,13.88 -27.56,12.79998 -8.24001,-0.77999 -16.79001,-2.14001 -24.39,-5.23999 -18.06,-7.36999 -25.25999,-24.22 -20.67,-45.32 3.9,-17.92 18.75,-31.83001 35.97,-33.69001 18.73,-2.02999 36.59,8.34 43.76999,26.09 2.13001,5.27 2.59,11.23 3.81,16.87 v 0.01 z m -64.44,11.14999 c 9.22,14.75002 22.1,17.90001 38.00999,11.21999 0.66001,1.98001 0.92,3.44 1.61,4.64999 0.81,1.42002 2,2.62 3.01,3.89002 10.75,-7.95001 12.25,-10.67001 9.02,-16.51001 -1.71001,2.73999 -3.31,5.29001 -6.1,9.75 -1.11001,-6.87 -3.03,-11.16 -1.34,-16.5 1.13,-3.56 0.64,-7.84 0.09,-11.67999 -0.71001,-5.03 -2.19001,-9.95 -3.36001,-15.01 -0.5,-0.28 -1.08,-0.75 -1.74,-0.94 -0.67999,-0.2 -1.67999,0.14999 -2.14,-0.22 -8.39,-6.9 -16.48,-4.52001 -24.87,0.24 -9.31999,5.29 -13.36,13.10001 -12.75999,23.58001 0.14999,2.55 0.42999,5.1 0.64999,7.64999 -2.30999,-0.17 -4.61999,-0.34 -6.92999,-0.50999 0,2.30999 -0.66,4.89999 0.16001,6.86999 1.49,3.57999 4.50999,3.98001 8.08999,1.95001 -0.47999,-2.88 -0.95,-5.64999 -1.41,-8.42 l 0.01,-0.01 z m 2.53,-36.27999 c -4.66001,-3.39 -7.75,-1.81 -9.51,2.46 -0.64999,1.58 -0.3,4.99001 0.73,5.58 3.97999,2.29 5.52,-1.55 7.33,-4.00999 0.75999,-1.03 0.92999,-2.50999 1.46001,-4.03 l -0.01,-1e-5 z" /><path
               id="path134"
               style="fill:#000000;fill-opacity:1;fill-rule:nonzero;stroke:none"
               d="m 195.64,255.87 c -0.22,-2.55001 -0.5,-5.10001 -0.64999,-7.65 -0.60001,-10.47999 3.44,-18.29001 12.75999,-23.58 8.39999,-4.77 16.48,-7.14 24.87,-0.24001 0.46,0.38001 1.44999,0.02 2.13999,0.22001 0.66001,0.19 1.25,0.66 1.74001,0.94 1.17,5.06 2.64999,9.97999 3.36,15.00999 0.53999,3.85001 1.03999,8.12 -0.09,11.68001 -1.69999,5.34 0.22001,9.63 1.34,16.5 2.78999,-4.45999 4.39,-7.01001 6.10001,-9.75 3.22,5.84 1.72,8.56 -9.02001,16.51001 -1.00999,-1.28 -2.19999,-2.47 -3.00999,-3.89001 -0.69,-1.21 -0.95,-2.67002 -1.61,-4.65 -15.91001,6.67999 -28.80001,3.53 -38.01,-11.22 l 0.09,0.11 -0.01,0.01 z m 38.73,-9.55001 c 0.11,-11.06 -6.16001,-18.17 -15.89,-18.03999 -9.65,0.13 -17.76,8.67 -17.59,18.54001 0.17,9.70999 7.64,17.17001 17.35001,17.30999 9.80999,0.15 16.02,-6.72 16.13,-17.80999 z" /><path
               id="path136"
               style="fill:#000000;fill-opacity:1;fill-rule:nonzero;stroke:none"
               d="m 198.08,219.48 c -0.53,1.52999 -0.7,3 -1.46,4.02999 -1.81,2.45 -3.35001,6.30001 -7.33001,4.01 -1.03,-0.59 -1.38,-4 -0.72999,-5.58 1.77,-4.28 4.85,-5.85001 9.50999,-2.46001 l 0.01,2e-5 z" /><path
               id="path138"
               style="fill:#000000;fill-opacity:1;fill-rule:nonzero;stroke:none"
               d="m 195.53999,255.75999 c 0.46001,2.77001 0.93,5.54 1.41001,8.42 -3.58,2.03 -6.60001,1.63001 -8.09,-1.95001 -0.82001,-1.97 -0.16,-4.56 -0.16,-6.86999 2.30999,0.16999 4.61999,0.33999 6.93,0.50999 l -0.09,-0.11 -2e-5,10e-6 z" /></g></g></g></g><path
       id="path140"
       style="fill:#000000;fill-opacity:0;fill-rule:nonzero;stroke:none"
       d="m 98.36305,62.01402 h 181.1581 V 371.93477 H 98.36305 Z" /><path
       id="path142"
       style="fill:#000000;fill-opacity:0;fill-rule:nonzero;stroke:none"
       d="M 109.7829,30.633337 H 268.1013 V 210.16967 H 109.7829 Z" /></g></svg>